<svg xmlns="http://www.w3.org/2000/svg" viewBox="0 0 611.8 162.36"><defs><style>.cls-1{fill:#0d41e1;}.cls-2{fill:#0a85ed;}.cls-3{fill:#09a6f3;}.cls-4{fill:#0c63e7;}</style></defs><title>janiscare-logo</title><g id="Layer_2" data-name="Layer 2"><g id="Layer_1-2" data-name="Layer 1"><path class="cls-1" d="M222.88,56V95.86q0,8.16-4.52,12.68t-12.52,4.52q-8.64,0-13.68-5t-5-14.16h11.12c0,2.88.6,5.1,1.8,6.64a6.31,6.31,0,0,0,5.32,2.32,5.68,5.68,0,0,0,4.72-1.88,8,8,0,0,0,1.52-5.16V56Z"/><path class="cls-1" d="M259.68,70.26a14.44,14.44,0,0,1,5.68,7.12v-9.2h11.19V112.5H265.36v-9.28a14.63,14.63,0,0,1-5.68,7.16,16.83,16.83,0,0,1-9.6,2.68A19,19,0,0,1,240,110.34a18.34,18.34,0,0,1-7-7.88,27.33,27.33,0,0,1-2.52-12.12A27.33,27.33,0,0,1,233,78.22a18.39,18.39,0,0,1,7-7.88,19,19,0,0,1,10.08-2.72A17,17,0,0,1,259.68,70.26ZM245.12,80.9q-3.21,3.45-3.2,9.44t3.2,9.4A12.12,12.12,0,0,0,262,99.66a12.94,12.94,0,0,0,3.32-9.32q0-5.91-3.32-9.4a11.18,11.18,0,0,0-8.44-3.48A11,11,0,0,0,245.12,80.9Z"/><path class="cls-1" d="M325.43,72.58q4.56,5,4.56,14.16V112.5h-11.2V88q0-5.28-2.72-8.2a9.69,9.69,0,0,0-7.44-2.92A10,10,0,0,0,301,80q-2.88,3.12-2.88,9V112.5H286.79V68.18h11.28v8.88a14.15,14.15,0,0,1,5.8-7,17.26,17.26,0,0,1,9.32-2.52Q320.87,67.54,325.43,72.58Z"/><path class="cls-1" d="M340.55,51a8.21,8.21,0,0,1,10.08,0,5.66,5.66,0,0,1,1.92,4.43,5.59,5.59,0,0,1-1.92,4.36,8.21,8.21,0,0,1-10.08,0,5.59,5.59,0,0,1-1.92-4.36A5.66,5.66,0,0,1,340.55,51Zm10.64,17.15V112.5H339.91V68.18Z"/><path class="cls-1" d="M389.66,71.7a17.65,17.65,0,0,1,6.08,10.88H385.18a8.3,8.3,0,0,0-8.72-7A6.72,6.72,0,0,0,372,76.9a4.58,4.58,0,0,0-1.6,3.68,3.73,3.73,0,0,0,1.27,3,9.17,9.17,0,0,0,3.21,1.76c1.28.43,3.11.94,5.51,1.52a57.81,57.81,0,0,1,8.2,2.36A13.64,13.64,0,0,1,394,93.1a10.81,10.81,0,0,1,2.28,7.24,11.18,11.18,0,0,1-4.44,9.2q-4.44,3.52-12,3.52c-5.75,0-10.37-1.29-13.83-3.88a16.28,16.28,0,0,1-6.32-11.08h10.79a7.28,7.28,0,0,0,2.89,5.16,10.44,10.44,0,0,0,6.47,1.88,6.26,6.26,0,0,0,4.4-1.4,4.7,4.7,0,0,0,1.52-3.64A4,4,0,0,0,384.5,97a8.93,8.93,0,0,0-3.28-1.84c-1.3-.42-3.16-.93-5.55-1.52a60.27,60.27,0,0,1-8-2.28,12.69,12.69,0,0,1-5.28-3.72,10.42,10.42,0,0,1-2.2-7,11.51,11.51,0,0,1,4.4-9.36q4.4-3.6,12.15-3.6Q384.79,67.62,389.66,71.7Z"/><path class="cls-1" d="M465.18,60.9a25.71,25.71,0,0,1,9.19,14.8H462.54a15.55,15.55,0,0,0-5.72-7.2,16.19,16.19,0,0,0-9.32-2.64,14.73,14.73,0,0,0-13.68,8.64,22.24,22.24,0,0,0-2,9.76,22,22,0,0,0,2,9.68,14.73,14.73,0,0,0,13.68,8.64,16.19,16.19,0,0,0,9.32-2.64,15.55,15.55,0,0,0,5.72-7.2h11.83a25.68,25.68,0,0,1-9.19,14.8q-7,5.44-17.52,5.44a27.63,27.63,0,0,1-14.28-3.64,24.8,24.8,0,0,1-9.6-10.2,31.8,31.8,0,0,1-3.4-14.88,32,32,0,0,1,3.4-15,24.82,24.82,0,0,1,9.56-10.19,27.58,27.58,0,0,1,14.32-3.65Q458.22,55.46,465.18,60.9Z"/><path class="cls-1" d="M509.81,70.26a14.39,14.39,0,0,1,5.68,7.12v-9.2h11.2V112.5h-11.2v-9.28a14.57,14.57,0,0,1-5.68,7.16,16.83,16.83,0,0,1-9.6,2.68,19.08,19.08,0,0,1-10.08-2.72,18.34,18.34,0,0,1-7-7.88,27.33,27.33,0,0,1-2.52-12.12,27.33,27.33,0,0,1,2.52-12.12,18.39,18.39,0,0,1,7-7.88,19.08,19.08,0,0,1,10.08-2.72A17,17,0,0,1,509.81,70.26ZM495.25,80.9q-3.19,3.45-3.2,9.44t3.2,9.4a12.12,12.12,0,0,0,16.92-.08,12.94,12.94,0,0,0,3.32-9.32q0-5.91-3.32-9.4a11.16,11.16,0,0,0-8.44-3.48A11,11,0,0,0,495.25,80.9Z"/><path class="cls-1" d="M554.77,70a17.43,17.43,0,0,1,9.11-2.44V79.62h-3.27q-12.4,0-12.4,11.52V112.5H536.93V68.18h11.28v8.48A18.59,18.59,0,0,1,554.77,70Z"/><path class="cls-1" d="M611.4,92.5H578.92q.24,5.93,3.2,8.72a10.3,10.3,0,0,0,7.36,2.8A10.66,10.66,0,0,0,596,102.1a8.51,8.51,0,0,0,3.32-5.2h11.92a19.06,19.06,0,0,1-3.76,8.32,19.74,19.74,0,0,1-7.4,5.76,25.35,25.35,0,0,1-21.56-.68,19.44,19.44,0,0,1-7.84-7.88,24.87,24.87,0,0,1-2.8-12.08,25.11,25.11,0,0,1,2.8-12.12,19.14,19.14,0,0,1,7.84-7.88A23.91,23.91,0,0,1,590,67.62a23.39,23.39,0,0,1,11.48,2.72,19.26,19.26,0,0,1,7.6,7.48,21.7,21.7,0,0,1,2.68,10.84A21.06,21.06,0,0,1,611.4,92.5ZM597.6,79.3A10.85,10.85,0,0,0,590,76.5a11.11,11.11,0,0,0-7.68,2.8c-2.08,1.87-3.22,4.61-3.44,8.24h21.52C600.6,83.91,599.65,81.17,597.6,79.3Z"/><path class="cls-1" d="M82.63,162.36a33.93,33.93,0,0,1-33.9-33.85l-.08-6.69H64.42l.09,6.58v.07a18.12,18.12,0,1,0,36.23,0V99.34h15.78v29.13A33.93,33.93,0,0,1,82.63,162.36Z"/><path class="cls-2" d="M64.42,63H48.65V33.89a33.89,33.89,0,0,1,67.78,0l.09,6.68H100.74L100.66,34v-.07a18.12,18.12,0,1,0-36.24,0Z"/><path class="cls-3" d="M64.42,115.12H33.89a33.9,33.9,0,0,1,0-67.79l8.09-.08V63l-8,.09h-.07a18.12,18.12,0,1,0,0,36.23H64.42Z"/><path class="cls-4" d="M123.22,115.12V99.34l5.18-.08h.07a18.12,18.12,0,1,0,0-36.24H100.74V47.25h27.73a33.89,33.89,0,0,1,0,67.78Z"/><rect class="cls-4" x="71.13" y="47.25" width="22.91" height="15.77"/><rect class="cls-3" x="71.13" y="99.34" width="22.91" height="15.77"/><rect class="cls-1" x="97.17" y="73.29" width="22.91" height="15.77" transform="translate(189.81 -27.45) rotate(90)"/><rect class="cls-2" x="45.08" y="73.29" width="22.91" height="15.77" transform="translate(137.72 24.65) rotate(90)"/></g></g></svg>