<?xml version="1.0" encoding="UTF-8" standalone="no" ?>
<!DOCTYPE svg PUBLIC "-//W3C//DTD SVG 1.1//EN" "http://www.w3.org/Graphics/SVG/1.1/DTD/svg11.dtd">
<svg xmlns="http://www.w3.org/2000/svg" xmlns:xlink="http://www.w3.org/1999/xlink" version="1.1" width="480" height="480" viewBox="0 0 480 480" xml:space="preserve">
<desc>Created with Fabric.js 3.6.6</desc>
<defs>
</defs>
<g transform="matrix(2.94 0 0 2.94 898.96 239.64)"  >
<g style=""   >
		<g transform="matrix(1 0 0 1 -100.89 3.35)"  >
<path style="stroke: none; stroke-width: 1; stroke-dasharray: none; stroke-linecap: butt; stroke-dashoffset: 0; stroke-linejoin: miter; stroke-miterlimit: 4; fill: rgb(13,65,225); fill-rule: nonzero; opacity: 1;"  transform=" translate(-205.02, -84.53)" d="M 222.88 56 V 95.86 q 0 8.16 -4.52 12.68 t -12.52 4.52 q -8.64 0 -13.68 -5 t -5 -14.16 h 11.12 c 0 2.88 0.6 5.1 1.8 6.64 a 6.31 6.31 0 0 0 5.32 2.32 a 5.68 5.68 0 0 0 4.72 -1.88 a 8 8 0 0 0 1.52 -5.16 V 56 Z" stroke-linecap="round" />
</g>
		<g transform="matrix(1 0 0 1 -52.39 9.16)"  >
<path style="stroke: none; stroke-width: 1; stroke-dasharray: none; stroke-linecap: butt; stroke-dashoffset: 0; stroke-linejoin: miter; stroke-miterlimit: 4; fill: rgb(13,65,225); fill-rule: nonzero; opacity: 1;"  transform=" translate(-253.51, -90.34)" d="M 259.68 70.26 a 14.44 14.44 0 0 1 5.68 7.12 v -9.2 h 11.19 V 112.5 H 265.36 v -9.28 a 14.63 14.63 0 0 1 -5.68 7.16 a 16.83 16.83 0 0 1 -9.6 2.68 A 19 19 0 0 1 240 110.34 a 18.34 18.34 0 0 1 -7 -7.88 a 27.33 27.33 0 0 1 -2.52 -12.12 A 27.33 27.33 0 0 1 233 78.22 a 18.39 18.39 0 0 1 7 -7.88 a 19 19 0 0 1 10.08 -2.72 A 17 17 0 0 1 259.68 70.26 Z M 245.12 80.9 q -3.21 3.45 -3.2 9.44 t 3.2 9.4 A 12.12 12.12 0 0 0 262 99.66 a 12.94 12.94 0 0 0 3.32 -9.32 q 0 -5.91 -3.32 -9.4 a 11.18 11.18 0 0 0 -8.44 -3.48 A 11 11 0 0 0 245.12 80.9 Z" stroke-linecap="round" />
</g>
		<g transform="matrix(1 0 0 1 2.49 8.84)"  >
<path style="stroke: none; stroke-width: 1; stroke-dasharray: none; stroke-linecap: butt; stroke-dashoffset: 0; stroke-linejoin: miter; stroke-miterlimit: 4; fill: rgb(13,65,225); fill-rule: nonzero; opacity: 1;"  transform=" translate(-308.39, -90.02)" d="M 325.43 72.58 q 4.56 5 4.56 14.16 V 112.5 h -11.2 V 88 q 0 -5.28 -2.72 -8.2 a 9.69 9.69 0 0 0 -7.44 -2.92 A 10 10 0 0 0 301 80 q -2.88 3.12 -2.88 9 V 112.5 H 286.79 V 68.18 h 11.28 v 8.88 a 14.15 14.15 0 0 1 5.8 -7 a 17.26 17.26 0 0 1 9.32 -2.52 Q 320.87 67.54 325.43 72.58 Z" stroke-linecap="round" />
</g>
		<g transform="matrix(1 0 0 1 39.69 -0.3)"  >
<path style="stroke: none; stroke-width: 1; stroke-dasharray: none; stroke-linecap: butt; stroke-dashoffset: 0; stroke-linejoin: miter; stroke-miterlimit: 4; fill: rgb(13,65,225); fill-rule: nonzero; opacity: 1;"  transform=" translate(-345.59, -80.89)" d="M 340.55 51 a 8.21 8.21 0 0 1 10.08 0 a 5.66 5.66 0 0 1 1.92 4.43 a 5.59 5.59 0 0 1 -1.92 4.36 a 8.21 8.21 0 0 1 -10.08 0 a 5.59 5.59 0 0 1 -1.92 -4.36 A 5.66 5.66 0 0 1 340.55 51 Z m 10.64 17.15 V 112.5 H 339.91 V 68.18 Z" stroke-linecap="round" />
</g>
		<g transform="matrix(1 0 0 1 72.09 9.19)"  >
<path style="stroke: none; stroke-width: 1; stroke-dasharray: none; stroke-linecap: butt; stroke-dashoffset: 0; stroke-linejoin: miter; stroke-miterlimit: 4; fill: rgb(13,65,225); fill-rule: nonzero; opacity: 1;"  transform=" translate(-377.99, -90.36)" d="M 389.66 71.7 a 17.65 17.65 0 0 1 6.08 10.88 H 385.18 a 8.3 8.3 0 0 0 -8.72 -7 A 6.72 6.72 0 0 0 372 76.9 a 4.58 4.58 0 0 0 -1.6 3.68 a 3.73 3.73 0 0 0 1.27 3 a 9.17 9.17 0 0 0 3.21 1.76 c 1.28 0.43 3.11 0.94 5.51 1.52 a 57.81 57.81 0 0 1 8.2 2.36 A 13.64 13.64 0 0 1 394 93.1 a 10.81 10.81 0 0 1 2.28 7.24 a 11.18 11.18 0 0 1 -4.44 9.2 q -4.44 3.52 -12 3.52 c -5.75 0 -10.37 -1.29 -13.83 -3.88 a 16.28 16.28 0 0 1 -6.32 -11.08 h 10.79 a 7.28 7.28 0 0 0 2.89 5.16 a 10.44 10.44 0 0 0 6.47 1.88 a 6.26 6.26 0 0 0 4.4 -1.4 a 4.7 4.7 0 0 0 1.52 -3.64 A 4 4 0 0 0 384.5 97 a 8.93 8.93 0 0 0 -3.28 -1.84 c -1.3 -0.42 -3.16 -0.93 -5.55 -1.52 a 60.27 60.27 0 0 1 -8 -2.28 a 12.69 12.69 0 0 1 -5.28 -3.72 a 10.42 10.42 0 0 1 -2.2 -7 a 11.51 11.51 0 0 1 4.4 -9.36 q 4.4 -3.6 12.15 -3.6 Q 384.79 67.62 389.66 71.7 Z" stroke-linecap="round" />
</g>
		<g transform="matrix(1 0 0 1 141.47 3.02)"  >
<path style="stroke: none; stroke-width: 1; stroke-dasharray: none; stroke-linecap: butt; stroke-dashoffset: 0; stroke-linejoin: miter; stroke-miterlimit: 4; fill: rgb(13,65,225); fill-rule: nonzero; opacity: 1;"  transform=" translate(-447.37, -84.2)" d="M 465.18 60.9 a 25.71 25.71 0 0 1 9.19 14.8 H 462.54 a 15.55 15.55 0 0 0 -5.72 -7.2 a 16.19 16.19 0 0 0 -9.32 -2.64 a 14.73 14.73 0 0 0 -13.68 8.64 a 22.24 22.24 0 0 0 -2 9.76 a 22 22 0 0 0 2 9.68 a 14.73 14.73 0 0 0 13.68 8.64 a 16.19 16.19 0 0 0 9.32 -2.64 a 15.55 15.55 0 0 0 5.72 -7.2 h 11.83 a 25.68 25.68 0 0 1 -9.19 14.8 q -7 5.44 -17.52 5.44 a 27.63 27.63 0 0 1 -14.28 -3.64 a 24.8 24.8 0 0 1 -9.6 -10.2 a 31.8 31.8 0 0 1 -3.4 -14.88 a 32 32 0 0 1 3.4 -15 a 24.82 24.82 0 0 1 9.56 -10.19 a 27.58 27.58 0 0 1 14.32 -3.65 Q 458.22 55.46 465.18 60.9 Z" stroke-linecap="round" />
</g>
		<g transform="matrix(1 0 0 1 197.74 9.16)"  >
<path style="stroke: none; stroke-width: 1; stroke-dasharray: none; stroke-linecap: butt; stroke-dashoffset: 0; stroke-linejoin: miter; stroke-miterlimit: 4; fill: rgb(13,65,225); fill-rule: nonzero; opacity: 1;"  transform=" translate(-503.65, -90.34)" d="M 509.81 70.26 a 14.39 14.39 0 0 1 5.68 7.12 v -9.2 h 11.2 V 112.5 h -11.2 v -9.28 a 14.57 14.57 0 0 1 -5.68 7.16 a 16.83 16.83 0 0 1 -9.6 2.68 a 19.08 19.08 0 0 1 -10.08 -2.72 a 18.34 18.34 0 0 1 -7 -7.88 a 27.33 27.33 0 0 1 -2.52 -12.12 a 27.33 27.33 0 0 1 2.52 -12.12 a 18.39 18.39 0 0 1 7 -7.88 a 19.08 19.08 0 0 1 10.08 -2.72 A 17 17 0 0 1 509.81 70.26 Z M 495.25 80.9 q -3.19 3.45 -3.2 9.44 t 3.2 9.4 a 12.12 12.12 0 0 0 16.92 -0.08 a 12.94 12.94 0 0 0 3.32 -9.32 q 0 -5.91 -3.32 -9.4 a 11.16 11.16 0 0 0 -8.44 -3.48 A 11 11 0 0 0 495.25 80.9 Z" stroke-linecap="round" />
</g>
		<g transform="matrix(1 0 0 1 244.51 8.85)"  >
<path style="stroke: none; stroke-width: 1; stroke-dasharray: none; stroke-linecap: butt; stroke-dashoffset: 0; stroke-linejoin: miter; stroke-miterlimit: 4; fill: rgb(13,65,225); fill-rule: nonzero; opacity: 1;"  transform=" translate(-550.4, -90.03)" d="M 554.77 70 a 17.43 17.43 0 0 1 9.11 -2.44 V 79.62 h -3.27 q -12.4 0 -12.4 11.52 V 112.5 H 536.93 V 68.18 h 11.28 v 8.48 A 18.59 18.59 0 0 1 554.77 70 Z" stroke-linecap="round" />
</g>
		<g transform="matrix(1 0 0 1 283.92 9.15)"  >
<path style="stroke: none; stroke-width: 1; stroke-dasharray: none; stroke-linecap: butt; stroke-dashoffset: 0; stroke-linejoin: miter; stroke-miterlimit: 4; fill: rgb(13,65,225); fill-rule: nonzero; opacity: 1;"  transform=" translate(-589.82, -90.34)" d="M 611.4 92.5 H 578.92 q 0.24 5.93 3.2 8.72 a 10.3 10.3 0 0 0 7.36 2.8 A 10.66 10.66 0 0 0 596 102.1 a 8.51 8.51 0 0 0 3.32 -5.2 h 11.92 a 19.06 19.06 0 0 1 -3.76 8.32 a 19.74 19.74 0 0 1 -7.4 5.76 a 25.35 25.35 0 0 1 -21.56 -0.68 a 19.44 19.44 0 0 1 -7.84 -7.88 a 24.87 24.87 0 0 1 -2.8 -12.08 a 25.11 25.11 0 0 1 2.8 -12.12 a 19.14 19.14 0 0 1 7.84 -7.88 A 23.91 23.91 0 0 1 590 67.62 a 23.39 23.39 0 0 1 11.48 2.72 a 19.26 19.26 0 0 1 7.6 7.48 a 21.7 21.7 0 0 1 2.68 10.84 A 21.06 21.06 0 0 1 611.4 92.5 Z M 597.6 79.3 A 10.85 10.85 0 0 0 590 76.5 a 11.11 11.11 0 0 0 -7.68 2.8 c -2.08 1.87 -3.22 4.61 -3.44 8.24 h 21.52 C 600.6 83.91 599.65 81.17 597.6 79.3 Z" stroke-linecap="round" />
</g>
		<g transform="matrix(1 0 0 1 -223.31 49.67)"  >
<path style="stroke: none; stroke-width: 1; stroke-dasharray: none; stroke-linecap: butt; stroke-dashoffset: 0; stroke-linejoin: miter; stroke-miterlimit: 4; fill: rgb(13,65,225); fill-rule: nonzero; opacity: 1;"  transform=" translate(-82.59, -130.85)" d="M 82.63 162.36 a 33.93 33.93 0 0 1 -33.9 -33.85 l -0.08 -6.69 H 64.42 l 0.09 6.58 v 0.07 a 18.12 18.12 0 1 0 36.23 0 V 99.34 h 15.78 v 29.13 A 33.93 33.93 0 0 1 82.63 162.36 Z" stroke-linecap="round" />
</g>
		<g transform="matrix(1 0 0 1 -223.31 -49.68)"  >
<path style="stroke: none; stroke-width: 1; stroke-dasharray: none; stroke-linecap: butt; stroke-dashoffset: 0; stroke-linejoin: miter; stroke-miterlimit: 4; fill: rgb(10,133,237); fill-rule: nonzero; opacity: 1;"  transform=" translate(-82.59, -31.5)" d="M 64.42 63 H 48.65 V 33.89 a 33.89 33.89 0 0 1 67.78 0 l 0.09 6.68 H 100.74 L 100.66 34 v -0.07 a 18.12 18.12 0 1 0 -36.24 0 Z" stroke-linecap="round" />
</g>
		<g transform="matrix(1 0 0 1 -273.41 0.01)"  >
<path style="stroke: none; stroke-width: 1; stroke-dasharray: none; stroke-linecap: butt; stroke-dashoffset: 0; stroke-linejoin: miter; stroke-miterlimit: 4; fill: rgb(9,166,243); fill-rule: nonzero; opacity: 1;"  transform=" translate(-32.5, -81.19)" d="M 64.42 115.12 H 33.89 a 33.9 33.9 0 0 1 0 -67.79 l 8.09 -0.08 V 63 l -8 0.09 h -0.07 a 18.12 18.12 0 1 0 0 36.23 H 64.42 Z" stroke-linecap="round" />
</g>
		<g transform="matrix(1 0 0 1 -174.35 0.01)"  >
<path style="stroke: none; stroke-width: 1; stroke-dasharray: none; stroke-linecap: butt; stroke-dashoffset: 0; stroke-linejoin: miter; stroke-miterlimit: 4; fill: rgb(12,99,231); fill-rule: nonzero; opacity: 1;"  transform=" translate(-131.55, -81.19)" d="M 123.22 115.12 V 99.34 l 5.18 -0.08 h 0.07 a 18.12 18.12 0 1 0 0 -36.24 H 100.74 V 47.25 h 27.73 a 33.89 33.89 0 0 1 0 67.78 Z" stroke-linecap="round" />
</g>
		<g transform="matrix(1 0 0 1 -223.31 -26.05)"  >
<rect style="stroke: none; stroke-width: 1; stroke-dasharray: none; stroke-linecap: butt; stroke-dashoffset: 0; stroke-linejoin: miter; stroke-miterlimit: 4; fill: rgb(12,99,231); fill-rule: nonzero; opacity: 1;"  x="-11.455" y="-7.885" rx="0" ry="0" width="22.91" height="15.77" />
</g>
		<g transform="matrix(1 0 0 1 -223.31 26.05)"  >
<rect style="stroke: none; stroke-width: 1; stroke-dasharray: none; stroke-linecap: butt; stroke-dashoffset: 0; stroke-linejoin: miter; stroke-miterlimit: 4; fill: rgb(9,166,243); fill-rule: nonzero; opacity: 1;"  x="-11.455" y="-7.885" rx="0" ry="0" width="22.91" height="15.77" />
</g>
		<g transform="matrix(0 1 -1 0 -197.26 0)"  >
<rect style="stroke: none; stroke-width: 1; stroke-dasharray: none; stroke-linecap: butt; stroke-dashoffset: 0; stroke-linejoin: miter; stroke-miterlimit: 4; fill: rgb(13,65,225); fill-rule: nonzero; opacity: 1;"  x="-11.455" y="-7.885" rx="0" ry="0" width="22.91" height="15.77" />
</g>
		<g transform="matrix(0 1 -1 0 -249.35 0.01)"  >
<rect style="stroke: none; stroke-width: 1; stroke-dasharray: none; stroke-linecap: butt; stroke-dashoffset: 0; stroke-linejoin: miter; stroke-miterlimit: 4; fill: rgb(10,133,237); fill-rule: nonzero; opacity: 1;"  x="-11.455" y="-7.885" rx="0" ry="0" width="22.91" height="15.77" />
</g>
</g>
</g>
</svg>